- 
http://www.Speed.Cd      fast  and The Hottest Private Tracker on the net

Please Seed back to make the speed Faster!!!

------------------nfo--------------------------
-[img]http://img705.imageshack.us/img705/8827/hangoverpartiiu.jpg[/img]

The.Hangover.Part.II.2011.DVDRip.XviD.AC3-EMBER 
http://www.imdb.com/title/tt1411697/

Plot
Two years after the bachelor party in Las Vegas, Phil, Stu, Alan, and Doug jet to Thailand for Stu's 
wedding. Stu's plan for a subdued pre-wedding brunch, however, goes seriously awry. 

Source                           : Me Bro ;) cheers r kid

General
Format                           : AVI
Format/Info                      : Audio Video Interleave
File size                        : 1.32 GiB
Duration                         : 1h 37mn
Overall bit rate                 : 1 934 Kbps
Writing application              : VirtualDubMod 1.5.10.2 (build 2540/release)
Writing library                  : VirtualDubMod build 2540/release

Video
ID                               : 0
Format                           : MPEG-4 Visual
Format profile                   : Advanced Simple@L5
Format settings, BVOP            : 2
Format settings, QPel            : No
Format settings, GMC             : No warppoints
Format settings, Matrix          : Default (H.263)
Muxing mode                      : Packed bitstream
Codec ID                         : XVID
Codec ID/Hint                    : XviD
Duration                         : 1h 37mn
Bit rate                         : 1 541 Kbps
Width                            : 720 pixels
Height                           : 304 pixels
Display aspect ratio             : 2.35:1
Frame rate                       : 23.976 fps
Color space                      : YUV
Chroma subsampling               : 4:2:0
Bit depth                        : 8 bits
Scan type                        : Progressive
Compression mode                 : Lossy
Bits/(Pixel*Frame)               : 0.294
Stream size                      : 1.05 GiB (80%)
Writing library                  : XviD 64

Audio
ID                               : 1
Format                           : AC-3
Format/Info                      : Audio Coding 3
Mode extension                   : CM (complete main)
Codec ID                         : 2000
Duration                         : 1h 37mn
Bit rate mode                    : Constant
Bit rate                         : 384 Kbps
Channel(s)                       : 2 channels
Channel positions                : Front: L R
Sampling rate                    : 48.0 KHz
Bit depth                        : 16 bits
Compression mode                 : Lossy
Stream size                      : 268 MiB (20%)
Alignment                        : Split accross interleaves
Interleave, duration             : 42 ms (1.00 video frame)
Interleave, preload duration     : 500 ms

Notes
Cropped, resized, deinterlaced, degrained, denoised, added colour, contrast, changed rgb levels, and sharpened

Screens
[img]http://img26.imageshack.us/img26/694/74053309.png[/img]
[img]http://img695.imageshack.us/img695/6164/94859101.png[/img]
[img]http://img508.imageshack.us/img508/4130/10968047.png[/img]
[img]http://img268.imageshack.us/img268/9123/26176062.png[/img]
[img]http://img831.imageshack.us/img831/5305/80433766.png[/img]
[img]http://img707.imageshack.us/img707/3969/76388572.png[/img]


Greetz to 
SHiRK, SHK, LKRG, UnKnOwN, IMAGiNE, SiC, BHRG, TaRiQ786, FLAWL3SS, Rx, Hive-CM8

SAMURAi, ViSUALiSE, RemixHD, iNSANE, DTRG

And to all other groups past and present

Got something to offer?

then you should know where to find us